# xmcd
#
# Track frame offsets: 
#        150
#        16486
#        35334
#        59427
#        79686
#        94024
#        111464
#        123959
#        141248
#        157188
#        174929
#        187719
#        201163
#        214603
#        227187
#        236394
#
# Disc length: 3353 seconds
#
# Revision: 0
# Processed by: cddbd v1.5.2PL0 Copyright (c) Steve Scherf et al.
# Submitted via: ExactAudioCopy v0.99pb4
#
DISCID=d30d1710
DTITLE=Zangeres Zonder Naam - Zangeres Zonder Naam - Vol. 1
DYEAR=2008
DGENRE=Chanson
TTITLE0=De Bruid
TTITLE1=Weet Je Moeder Wat Ik Droomde ?
TTITLE2=Het Soldaatje
TTITLE3=Eduard En Helena
TTITLE4=Achter In Het Stille Klooster
TTITLE5=Jongens Van 18 Jaar
TTITLE6=Mag Ik Van U 'n Lift, Meneer ?
TTITLE7=De Vlieger
TTITLE8=Het Parelsnoer
TTITLE9=Zeehondenbabies
TTITLE10=Kleine Suze
TTITLE11=Moeder, Hoe Kan Ik Je Danken ?
TTITLE12=Achter Tralies En Muren
TTITLE13=Het Konijntje
TTITLE14=Het Broekje Van Jantje
TTITLE15=Laura
EXTD=
EXTT0=
EXTT1=
EXTT2=
EXTT3=
EXTT4=
EXTT5=
EXTT6=
EXTT7=
EXTT8=
EXTT9=
EXTT10=
EXTT11=
EXTT12=
EXTT13=
EXTT14=
EXTT15=
PLAYORDER=
